# File generated by ImageToStl.com - Free Image and 3D model conversion tools

o obj1
v 0 0 -0.0732879
v 0 2 -0.0732879
v 0.01429776 2 -0.0718797
v 0.01429776 0 -0.0718797
v 0.02804607 2 -0.06770919
v 0.02804607 0 -0.06770919
v 0.04071658 2 -0.06093666
v 0.04071658 0 -0.06093666
v 0.05182237 2 -0.05182237
v 0.05182237 0 -0.05182237
v 0.06093666 2 -0.04071658
v 0.06093666 0 -0.04071658
v 0.06770919 2 -0.02804607
v 0.06770919 0 -0.02804607
v 0.0718797 2 -0.01429776
v 0.0718797 0 -0.01429776
v 0.0732879 2 0
v 0.0732879 0 0
v 0.0718797 2 0.01429776
v 0.0718797 0 0.01429776
v 0.06770919 2 0.02804607
v 0.06770919 0 0.02804607
v 0.06093666 2 0.04071658
v 0.06093666 0 0.04071658
v 0.05182237 2 0.05182237
v 0.05182237 0 0.05182237
v 0.04071658 2 0.06093666
v 0.04071658 0 0.06093666
v 0.02804607 2 0.06770919
v 0.02804607 0 0.06770919
v 0.01429776 2 0.0718797
v 0.01429776 0 0.0718797
v 0 2 0.0732879
v 0 0 0.0732879
v -0.01429776 2 0.0718797
v -0.01429776 0 0.0718797
v -0.02804607 2 0.06770919
v -0.02804607 0 0.06770919
v -0.04071658 2 0.06093666
v -0.04071658 0 0.06093666
v -0.05182237 2 0.05182237
v -0.05182237 0 0.05182237
v -0.06093666 2 0.04071658
v -0.06093666 0 0.04071658
v -0.06770919 2 0.02804607
v -0.06770919 0 0.02804607
v -0.0718797 2 0.01429776
v -0.0718797 0 0.01429776
v -0.0732879 2 0
v -0.0732879 0 0
v -0.0718797 2 -0.01429776
v -0.0718797 0 -0.01429776
v -0.06770919 2 -0.02804607
v -0.06770919 0 -0.02804607
v -0.06093666 2 -0.04071658
v -0.06093666 0 -0.04071658
v -0.05182237 2 -0.05182237
v -0.05182237 0 -0.05182237
v -0.04071658 2 -0.06093666
v -0.04071658 0 -0.06093666
v -0.02804607 2 -0.06770919
v -0.02804607 0 -0.06770919
v 0.02804607 2 -0.06770919
v 0.01429776 2 -0.0718797
v 0 2 -0.0732879
v -0.01429776 2 -0.0718797
v -0.02804607 2 -0.06770919
v -0.04071658 2 -0.06093666
v -0.05182237 2 -0.05182237
v -0.06093666 2 -0.04071658
v -0.06770919 2 -0.02804607
v -0.0718797 2 -0.01429776
v -0.0732879 2 0
v -0.0718797 2 0.01429776
v -0.06770919 2 0.02804607
v -0.06093666 2 0.04071658
v -0.05182237 2 0.05182237
v -0.04071658 2 0.06093666
v -0.02804607 2 0.06770919
v -0.01429776 2 0.0718797
v 0 2 0.0732879
v 0.01429776 2 0.0718797
v 0.02804607 2 0.06770919
v 0.04071658 2 0.06093666
v 0.05182237 2 0.05182237
v 0.06093666 2 0.04071658
v 0.06770919 2 0.02804607
v 0.0718797 2 0.01429776
v 0.0732879 2 0
v 0.0718797 2 -0.01429776
v 0.06770919 2 -0.02804607
v 0.06093666 2 -0.04071658
v 0.05182237 2 -0.05182237
v 0.04071658 2 -0.06093666
v -0.01429776 2 -0.0718797
v -0.01429776 0 -0.0718797
v 0 2 -0.0732879
v 0 0 -0.0732879
v -0.01429776 0 -0.0718797
v 0 0 -0.0732879
v 0.01429776 0 -0.0718797
v 0.02804607 0 -0.06770919
v 0.04071658 0 -0.06093666
v 0.05182237 0 -0.05182237
v 0.06093666 0 -0.04071658
v 0.06770919 0 -0.02804607
v 0.0718797 0 -0.01429776
v 0.0732879 0 0
v 0.0718797 0 0.01429776
v 0.06770919 0 0.02804607
v 0.06093666 0 0.04071658
v 0.05182237 0 0.05182237
v 0.04071658 0 0.06093666
v 0.02804607 0 0.06770919
v 0.01429776 0 0.0718797
v 0 0 0.0732879
v -0.01429776 0 0.0718797
v -0.02804607 0 0.06770919
v -0.04071658 0 0.06093666
v -0.05182237 0 0.05182237
v -0.06093666 0 0.04071658
v -0.06770919 0 0.02804607
v -0.0718797 0 0.01429776
v -0.0732879 0 0
v -0.0718797 0 -0.01429776
v -0.06770919 0 -0.02804607
v -0.06093666 0 -0.04071658
v -0.05182237 0 -0.05182237
v -0.04071658 0 -0.06093666
v -0.02804607 0 -0.06770919
vn 0 -0.68569 -0.72789
vn 0 0.68569 -0.72789
vn 0.142 0.6857 -0.7139
vn 0.142 -0.6857 -0.7139
vn 0.2785 0.6857 -0.6725
vn 0.2785 -0.6857 -0.6725
vn 0.4044 0.6857 -0.6052
vn 0.4044 -0.6857 -0.6052
vn 0.5147 0.68569 -0.5147
vn 0.5147 -0.68569 -0.5147
vn 0.6052 0.6857 -0.4044
vn 0.6052 -0.6857 -0.4044
vn 0.6725 0.6857 -0.2785
vn 0.6725 -0.6857 -0.2785
vn 0.7139 0.6857 -0.142
vn 0.7139 -0.6857 -0.142
vn 0.72789 0.68569 0
vn 0.72789 -0.68569 0
vn 0.7139 0.6857 0.142
vn 0.7139 -0.6857 0.142
vn 0.6725 0.6857 0.2785
vn 0.6725 -0.6857 0.2785
vn 0.6052 0.6857 0.4044
vn 0.6052 -0.6857 0.4044
vn 0.5147 0.68569 0.5147
vn 0.5147 -0.68569 0.5147
vn 0.4044 0.6857 0.6052
vn 0.4044 -0.6857 0.6052
vn 0.2785 0.6857 0.6725
vn 0.2785 -0.6857 0.6725
vn 0.142 0.6857 0.7139
vn 0.142 -0.6857 0.7139
vn 0 0.68569 0.72789
vn 0 -0.68569 0.72789
vn -0.142 0.6857 0.7139
vn -0.142 -0.6857 0.7139
vn -0.2785 0.6857 0.6725
vn -0.2785 -0.6857 0.6725
vn -0.4044 0.6857 0.6052
vn -0.4044 -0.6857 0.6052
vn -0.5147 0.68569 0.5147
vn -0.5147 -0.68569 0.5147
vn -0.6052 0.6857 0.4044
vn -0.6052 -0.6857 0.4044
vn -0.6725 0.6857 0.2785
vn -0.6725 -0.6857 0.2785
vn -0.7139 0.6857 0.142
vn -0.7139 -0.6857 0.142
vn -0.72789 0.68569 0
vn -0.72789 -0.68569 0
vn -0.7139 0.6857 -0.142
vn -0.7139 -0.6857 -0.142
vn -0.6725 0.6857 -0.2785
vn -0.6725 -0.6857 -0.2785
vn -0.6052 0.6857 -0.4044
vn -0.6052 -0.6857 -0.4044
vn -0.5147 0.68569 -0.5147
vn -0.5147 -0.68569 -0.5147
vn -0.4044 0.6857 -0.6052
vn -0.4044 -0.6857 -0.6052
vn -0.2785 0.6857 -0.6725
vn -0.2785 -0.6857 -0.6725
vn -0.142 0.6857 -0.7139
vn -0.142 -0.6857 -0.7139
vt 1 0.5
vt 1 1
vt 0.96875 1
vt 0.96875 0.5
vt 0.9375 1
vt 0.9375 0.5
vt 0.90625 1
vt 0.90625 0.5
vt 0.875 1
vt 0.875 0.5
vt 0.84375 1
vt 0.84375 0.5
vt 0.8125 1
vt 0.8125 0.5
vt 0.78125 1
vt 0.78125 0.5
vt 0.75 1
vt 0.75 0.5
vt 0.71875 1
vt 0.71875 0.5
vt 0.6875 1
vt 0.6875 0.5
vt 0.65625 1
vt 0.65625 0.5
vt 0.625 1
vt 0.625 0.5
vt 0.59375 1
vt 0.59375 0.5
vt 0.5625 1
vt 0.5625 0.5
vt 0.53125 1
vt 0.53125 0.5
vt 0.5 1
vt 0.5 0.5
vt 0.46875 1
vt 0.46875 0.5
vt 0.4375 1
vt 0.4375 0.5
vt 0.40625 1
vt 0.40625 0.5
vt 0.375 1
vt 0.375 0.5
vt 0.34375 1
vt 0.34375 0.5
vt 0.3125 1
vt 0.3125 0.5
vt 0.28125 1
vt 0.28125 0.5
vt 0.25 1
vt 0.25 0.5
vt 0.21875 1
vt 0.21875 0.5
vt 0.1875 1
vt 0.1875 0.5
vt 0.15625 1
vt 0.15625 0.5
vt 0.125 1
vt 0.125 0.5
vt 0.09375 1
vt 0.09375 0.5
vt 0.0625 1
vt 0.0625 0.5
vt 0.34184 0.47173
vt 0.29682 0.48539
vt 0.25 0.49
vt 0.20318 0.48539
vt 0.15816 0.47173
vt 0.11666 0.44955
vt 0.08029 0.41971
vt 0.05045 0.38334
vt 0.02827 0.34184
vt 0.01461 0.29682
vt 0.01 0.25
vt 0.01461 0.20318
vt 0.02827 0.15816
vt 0.05045 0.11666
vt 0.08029 0.08029
vt 0.11666 0.05045
vt 0.15816 0.02827
vt 0.20318 0.01461
vt 0.25 0.01
vt 0.29682 0.01461
vt 0.34184 0.02827
vt 0.38334 0.05045
vt 0.41971 0.08029
vt 0.44955 0.11666
vt 0.47173 0.15816
vt 0.48539 0.20318
vt 0.49 0.25
vt 0.48539 0.29682
vt 0.47173 0.34184
vt 0.44955 0.38334
vt 0.41971 0.41971
vt 0.38334 0.44955
vt 0.03125 1
vt 0.03125 0.5
vt 0 1
vt 0 0.5
vt 0.70318 0.48539
vt 0.75 0.49
vt 0.79682 0.48539
vt 0.84184 0.47173
vt 0.88334 0.44955
vt 0.91971 0.41971
vt 0.94955 0.38334
vt 0.97173 0.34184
vt 0.98539 0.29682
vt 0.99 0.25
vt 0.98539 0.20318
vt 0.97173 0.15816
vt 0.94955 0.11666
vt 0.91971 0.08029
vt 0.88334 0.05045
vt 0.84184 0.02827
vt 0.79682 0.01461
vt 0.75 0.01
vt 0.70318 0.01461
vt 0.65816 0.02827
vt 0.61666 0.05045
vt 0.58029 0.08029
vt 0.55045 0.11666
vt 0.52827 0.15816
vt 0.51461 0.20318
vt 0.51 0.25
vt 0.51461 0.29682
vt 0.52827 0.34184
vt 0.55045 0.38334
vt 0.58029 0.41971
vt 0.61666 0.44955
vt 0.65816 0.47173
f 1/1/1 2/2/2 3/3/3
f 1/1/1 3/3/3 4/4/4
f 4/4/4 3/3/3 5/5/5
f 4/4/4 5/5/5 6/6/6
f 6/6/6 5/5/5 7/7/7
f 6/6/6 7/7/7 8/8/8
f 8/8/8 7/7/7 9/9/9
f 8/8/8 9/9/9 10/10/10
f 10/10/10 9/9/9 11/11/11
f 10/10/10 11/11/11 12/12/12
f 12/12/12 11/11/11 13/13/13
f 12/12/12 13/13/13 14/14/14
f 14/14/14 13/13/13 15/15/15
f 14/14/14 15/15/15 16/16/16
f 16/16/16 15/15/15 17/17/17
f 16/16/16 17/17/17 18/18/18
f 18/18/18 17/17/17 19/19/19
f 18/18/18 19/19/19 20/20/20
f 20/20/20 19/19/19 21/21/21
f 20/20/20 21/21/21 22/22/22
f 22/22/22 21/21/21 23/23/23
f 22/22/22 23/23/23 24/24/24
f 24/24/24 23/23/23 25/25/25
f 24/24/24 25/25/25 26/26/26
f 26/26/26 25/25/25 27/27/27
f 26/26/26 27/27/27 28/28/28
f 28/28/28 27/27/27 29/29/29
f 28/28/28 29/29/29 30/30/30
f 30/30/30 29/29/29 31/31/31
f 30/30/30 31/31/31 32/32/32
f 32/32/32 31/31/31 33/33/33
f 32/32/32 33/33/33 34/34/34
f 34/34/34 33/33/33 35/35/35
f 34/34/34 35/35/35 36/36/36
f 36/36/36 35/35/35 37/37/37
f 36/36/36 37/37/37 38/38/38
f 38/38/38 37/37/37 39/39/39
f 38/38/38 39/39/39 40/40/40
f 40/40/40 39/39/39 41/41/41
f 40/40/40 41/41/41 42/42/42
f 42/42/42 41/41/41 43/43/43
f 42/42/42 43/43/43 44/44/44
f 44/44/44 43/43/43 45/45/45
f 44/44/44 45/45/45 46/46/46
f 46/46/46 45/45/45 47/47/47
f 46/46/46 47/47/47 48/48/48
f 48/48/48 47/47/47 49/49/49
f 48/48/48 49/49/49 50/50/50
f 50/50/50 49/49/49 51/51/51
f 50/50/50 51/51/51 52/52/52
f 52/52/52 51/51/51 53/53/53
f 52/52/52 53/53/53 54/54/54
f 54/54/54 53/53/53 55/55/55
f 54/54/54 55/55/55 56/56/56
f 56/56/56 55/55/55 57/57/57
f 56/56/56 57/57/57 58/58/58
f 58/58/58 57/57/57 59/59/59
f 58/58/58 59/59/59 60/60/60
f 60/60/60 59/59/59 61/61/61
f 60/60/60 61/61/61 62/62/62
f 63/63/5 64/64/3 65/65/2
f 65/65/2 66/66/63 67/67/61
f 67/67/61 68/68/59 69/69/57
f 69/69/57 70/70/55 71/71/53
f 71/71/53 72/72/51 73/73/49
f 73/73/49 74/74/47 75/75/45
f 75/75/45 76/76/43 77/77/41
f 77/77/41 78/78/39 79/79/37
f 79/79/37 80/80/35 81/81/33
f 81/81/33 82/82/31 83/83/29
f 83/83/29 84/84/27 85/85/25
f 85/85/25 86/86/23 87/87/21
f 87/87/21 88/88/19 89/89/17
f 89/89/17 90/90/15 91/91/13
f 91/91/13 92/92/11 93/93/9
f 93/93/9 94/94/7 63/63/5
f 63/63/5 65/65/2 67/67/61
f 67/67/61 69/69/57 71/71/53
f 71/71/53 73/73/49 75/75/45
f 75/75/45 77/77/41 79/79/37
f 79/79/37 81/81/33 83/83/29
f 83/83/29 85/85/25 87/87/21
f 87/87/21 89/89/17 91/91/13
f 91/91/13 93/93/9 63/63/5
f 63/63/5 67/67/61 71/71/53
f 71/71/53 75/75/45 79/79/37
f 79/79/37 83/83/29 87/87/21
f 87/87/21 91/91/13 63/63/5
f 63/63/5 71/71/53 79/79/37
f 79/79/37 87/87/21 63/63/5
f 62/62/62 61/61/61 95/95/63
f 62/62/62 95/95/63 96/96/64
f 96/96/64 95/95/63 97/97/2
f 96/96/64 97/97/2 98/98/1
f 99/99/64 100/100/1 101/101/4
f 101/101/4 102/102/6 103/103/8
f 103/103/8 104/104/10 105/105/12
f 105/105/12 106/106/14 107/107/16
f 107/107/16 108/108/18 109/109/20
f 109/109/20 110/110/22 111/111/24
f 111/111/24 112/112/26 113/113/28
f 113/113/28 114/114/30 115/115/32
f 115/115/32 116/116/34 117/117/36
f 117/117/36 118/118/38 119/119/40
f 119/119/40 120/120/42 121/121/44
f 121/121/44 122/122/46 123/123/48
f 123/123/48 124/124/50 125/125/52
f 125/125/52 126/126/54 127/127/56
f 127/127/56 128/128/58 129/129/60
f 129/129/60 130/130/62 99/99/64
f 99/99/64 101/101/4 103/103/8
f 103/103/8 105/105/12 107/107/16
f 107/107/16 109/109/20 111/111/24
f 111/111/24 113/113/28 115/115/32
f 115/115/32 117/117/36 119/119/40
f 119/119/40 121/121/44 123/123/48
f 123/123/48 125/125/52 127/127/56
f 127/127/56 129/129/60 99/99/64
f 99/99/64 103/103/8 107/107/16
f 107/107/16 111/111/24 115/115/32
f 115/115/32 119/119/40 123/123/48
f 123/123/48 127/127/56 99/99/64
f 99/99/64 107/107/16 115/115/32
f 115/115/32 123/123/48 99/99/64
# Vertices: 130, normals: 64, texture coordinates: 130, faces: 124

o obj2
v 0 1.9810636 -0.26066375
v 0 2.5023911 0
v 0.05085297 1.9810636 -0.25565516
v 0.0997517 1.9810636 -0.24082189
v 0.14481702 1.9810636 -0.21673398
v 0.1843171 1.9810636 -0.1843171
v 0.21673398 1.9810636 -0.14481702
v 0.24082189 1.9810636 -0.0997517
v 0.25565516 1.9810636 -0.05085297
v 0.26066375 1.9810636 0
v 0.25565516 1.9810636 0.05085297
v 0.24082189 1.9810636 0.0997517
v 0.21673398 1.9810636 0.14481702
v 0.1843171 1.9810636 0.1843171
v 0.14481702 1.9810636 0.21673398
v 0.0997517 1.9810636 0.24082189
v 0.05085297 1.9810636 0.25565516
v 0 1.9810636 0.26066375
v -0.05085297 1.9810636 0.25565516
v -0.0997517 1.9810636 0.24082189
v -0.14481702 1.9810636 0.21673398
v -0.1843171 1.9810636 0.1843171
v -0.21673398 1.9810636 0.14481702
v -0.24082189 1.9810636 0.0997517
v -0.25565516 1.9810636 0.05085297
v -0.26066375 1.9810636 0
v -0.25565516 1.9810636 -0.05085297
v -0.24082189 1.9810636 -0.0997517
v -0.21673398 1.9810636 -0.14481702
v -0.1843171 1.9810636 -0.1843171
v -0.14481702 1.9810636 -0.21673398
v -0.0997517 1.9810636 -0.24082189
v -0.05085297 1.9810636 -0.25565516
v 0 1.9810636 -0.26066375
v 0.05085297 1.9810636 -0.25565516
v 0.0997517 1.9810636 -0.24082189
v 0.14481702 1.9810636 -0.21673398
v 0.1843171 1.9810636 -0.1843171
v 0.21673398 1.9810636 -0.14481702
v 0.24082189 1.9810636 -0.0997517
v 0.25565516 1.9810636 -0.05085297
v 0.26066375 1.9810636 0
v 0.25565516 1.9810636 0.05085297
v 0.24082189 1.9810636 0.0997517
v 0.21673398 1.9810636 0.14481702
v 0.1843171 1.9810636 0.1843171
v 0.14481702 1.9810636 0.21673398
v 0.0997517 1.9810636 0.24082189
v 0.05085297 1.9810636 0.25565516
v 0 1.9810636 0.26066375
v -0.05085297 1.9810636 0.25565516
v -0.0997517 1.9810636 0.24082189
v -0.14481702 1.9810636 0.21673398
v -0.1843171 1.9810636 0.1843171
v -0.21673398 1.9810636 0.14481702
v -0.24082189 1.9810636 0.0997517
v -0.25565516 1.9810636 0.05085297
v -0.26066375 1.9810636 0
v -0.25565516 1.9810636 -0.05085297
v -0.24082189 1.9810636 -0.0997517
v -0.21673398 1.9810636 -0.14481702
v -0.1843171 1.9810636 -0.1843171
v -0.14481702 1.9810636 -0.21673398
v -0.0997517 1.9810636 -0.24082189
v -0.05085297 1.9810636 -0.25565516
vn 0 -0.50331 -0.86411
vn 0 1 0
vn 0.1686 -0.5033 -0.8475
vn 0.33071 -0.50331 -0.79832
vn 0.48009 -0.50329 -0.71848
vn 0.61101 -0.50331 -0.61101
vn 0.71848 -0.50329 -0.48009
vn 0.79832 -0.50331 -0.33071
vn 0.8475 -0.5033 -0.1686
vn 0.86411 -0.50331 0
vn 0.8475 -0.5033 0.1686
vn 0.79832 -0.50331 0.33071
vn 0.71848 -0.50329 0.48009
vn 0.61101 -0.50331 0.61101
vn 0.48009 -0.50329 0.71848
vn 0.33071 -0.50331 0.79832
vn 0.1686 -0.5033 0.8475
vn 0 -0.50331 0.86411
vn -0.1686 -0.5033 0.8475
vn -0.33071 -0.50331 0.79832
vn -0.48009 -0.50329 0.71848
vn -0.61101 -0.50331 0.61101
vn -0.71848 -0.50329 0.48009
vn -0.79832 -0.50331 0.33071
vn -0.8475 -0.5033 0.1686
vn -0.86411 -0.50331 0
vn -0.8475 -0.5033 -0.1686
vn -0.79832 -0.50331 -0.33071
vn -0.71848 -0.50329 -0.48009
vn -0.61101 -0.50331 -0.61101
vn -0.48009 -0.50329 -0.71848
vn -0.33071 -0.50331 -0.79832
vn -0.1686 -0.5033 -0.8475
vt 0.25 0.49
vt 0.25 0.25
vt 0.29682 0.48539
vt 0.34184 0.47173
vt 0.38334 0.44955
vt 0.41971 0.41971
vt 0.44955 0.38334
vt 0.47173 0.34184
vt 0.48539 0.29682
vt 0.49 0.25
vt 0.48539 0.20318
vt 0.47173 0.15816
vt 0.44955 0.11666
vt 0.41971 0.08029
vt 0.38334 0.05045
vt 0.34184 0.02827
vt 0.29682 0.01461
vt 0.25 0.01
vt 0.20318 0.01461
vt 0.15816 0.02827
vt 0.11666 0.05045
vt 0.08029 0.08029
vt 0.05045 0.11666
vt 0.02827 0.15816
vt 0.01461 0.20318
vt 0.01 0.25
vt 0.01461 0.29682
vt 0.02827 0.34184
vt 0.05045 0.38334
vt 0.08029 0.41971
vt 0.11666 0.44955
vt 0.15816 0.47173
vt 0.70318 0.48539
vt 0.75 0.49
vt 0.79682 0.48539
vt 0.84184 0.47173
vt 0.88334 0.44955
vt 0.91971 0.41971
vt 0.94955 0.38334
vt 0.97173 0.34184
vt 0.98539 0.29682
vt 0.99 0.25
vt 0.98539 0.20318
vt 0.97173 0.15816
vt 0.94955 0.11666
vt 0.91971 0.08029
vt 0.88334 0.05045
vt 0.84184 0.02827
vt 0.79682 0.01461
vt 0.75 0.01
vt 0.70318 0.01461
vt 0.65816 0.02827
vt 0.61666 0.05045
vt 0.58029 0.08029
vt 0.55045 0.11666
vt 0.52827 0.15816
vt 0.51461 0.20318
vt 0.51 0.25
vt 0.51461 0.29682
vt 0.52827 0.34184
vt 0.55045 0.38334
vt 0.58029 0.41971
vt 0.61666 0.44955
vt 0.65816 0.47173
vt 0.20318 0.48539
f 131/131/65 132/132/66 133/133/67
f 133/133/67 132/132/66 134/134/68
f 134/134/68 132/132/66 135/135/69
f 135/135/69 132/132/66 136/136/70
f 136/136/70 132/132/66 137/137/71
f 137/137/71 132/132/66 138/138/72
f 138/138/72 132/132/66 139/139/73
f 139/139/73 132/132/66 140/140/74
f 140/140/74 132/132/66 141/141/75
f 141/141/75 132/132/66 142/142/76
f 142/142/76 132/132/66 143/143/77
f 143/143/77 132/132/66 144/144/78
f 144/144/78 132/132/66 145/145/79
f 145/145/79 132/132/66 146/146/80
f 146/146/80 132/132/66 147/147/81
f 147/147/81 132/132/66 148/148/82
f 148/148/82 132/132/66 149/149/83
f 149/149/83 132/132/66 150/150/84
f 150/150/84 132/132/66 151/151/85
f 151/151/85 132/132/66 152/152/86
f 152/152/86 132/132/66 153/153/87
f 153/153/87 132/132/66 154/154/88
f 154/154/88 132/132/66 155/155/89
f 155/155/89 132/132/66 156/156/90
f 156/156/90 132/132/66 157/157/91
f 157/157/91 132/132/66 158/158/92
f 158/158/92 132/132/66 159/159/93
f 159/159/93 132/132/66 160/160/94
f 160/160/94 132/132/66 161/161/95
f 161/161/95 132/132/66 162/162/96
f 163/163/97 164/164/65 165/165/67
f 165/165/67 166/166/68 167/167/69
f 167/167/69 168/168/70 169/169/71
f 169/169/71 170/170/72 171/171/73
f 171/171/73 172/172/74 173/173/75
f 173/173/75 174/174/76 175/175/77
f 175/175/77 176/176/78 177/177/79
f 177/177/79 178/178/80 179/179/81
f 179/179/81 180/180/82 181/181/83
f 181/181/83 182/182/84 183/183/85
f 183/183/85 184/184/86 185/185/87
f 185/185/87 186/186/88 187/187/89
f 187/187/89 188/188/90 189/189/91
f 189/189/91 190/190/92 191/191/93
f 191/191/93 192/192/94 193/193/95
f 193/193/95 194/194/96 163/163/97
f 163/163/97 165/165/67 167/167/69
f 167/167/69 169/169/71 171/171/73
f 171/171/73 173/173/75 175/175/77
f 175/175/77 177/177/79 179/179/81
f 179/179/81 181/181/83 183/183/85
f 183/183/85 185/185/87 187/187/89
f 187/187/89 189/189/91 191/191/93
f 191/191/93 193/193/95 163/163/97
f 163/163/97 167/167/69 171/171/73
f 171/171/73 175/175/77 179/179/81
f 179/179/81 183/183/85 187/187/89
f 187/187/89 191/191/93 163/163/97
f 163/163/97 171/171/73 179/179/81
f 179/179/81 187/187/89 163/163/97
f 162/162/96 132/132/66 195/195/97
f 195/195/97 132/132/66 131/131/65
# Vertices: 65, normals: 33, texture coordinates: 65, faces: 62

