# Blender 4.3.0
# www.blender.org
mtllib node-medium.mtl
o Cube.001
v -0.544741 0.045292 -0.500000
v -0.348770 0.111368 0.500000
v -0.544741 0.120243 0.304029
v 0.298127 0.007117 -0.500000
v 0.455259 -0.000000 -0.342867
v -0.147552 0.922236 -0.334536
v -0.544741 0.796363 -0.500000
v -0.378845 0.960472 -0.099423
v 0.290690 0.902387 0.103706
v 0.054357 0.940851 0.333780
v -0.378845 0.967372 0.235243
v -0.544741 0.812979 0.304029
v -0.280308 0.962909 0.333780
v -0.348770 0.804105 0.500000
v 0.290690 0.864856 -0.275712
v 0.455259 0.667706 -0.342867
v 0.231866 0.867521 -0.334536
v 0.298127 0.674805 -0.500000
v 0.053245 0.018208 0.500000
v -0.544741 0.045292 -0.097985
v 0.455259 -0.000000 0.389018
v 0.344277 0.005027 0.500000
v 0.376823 0.003553 0.421564
v 0.344277 0.758410 0.500000
v 0.455259 0.740112 0.389018
v 0.415118 0.787996 0.403337
v 0.361326 0.795553 0.461054
vn -0.7071 -0.0000 0.7071
vn 0.7552 0.6524 -0.0645
vn 0.0658 0.9976 -0.0206
vn -0.0000 -0.0000 -1.0000
vn -0.0000 -0.0000 1.0000
vn 0.1421 0.9851 -0.0974
vn 0.7071 -0.0000 -0.7071
vn -0.2221 -0.9585 0.1787
vn 1.0000 -0.0000 -0.0000
vn -0.1652 0.9348 -0.3145
vn 0.0470 0.7125 0.7001
vn 0.1041 0.9928 -0.0591
vn -0.4687 0.7271 0.5016
vn -0.6846 0.7288 -0.0151
vn 0.5557 0.6433 -0.5267
vn 0.0962 0.6672 -0.7386
vn 0.3481 0.9148 0.2047
vn -1.0000 -0.0000 -0.0000
vn -0.0452 -0.9990 -0.0000
vn 0.6928 0.3678 0.6203
vn 0.7071 -0.0000 0.7071
vt 0.375000 0.951007
vt 0.583314 0.951007
vt 0.582472 1.000000
vt 0.375000 1.000000
vt 0.666142 0.556072
vt 0.666142 0.650927
vt 0.603514 0.725834
vt 0.583309 0.722254
vt 0.583306 0.539283
vt 0.725226 0.708445
vt 0.833526 0.600144
vt 0.833526 0.683811
vt 0.808892 0.708445
vt 0.375000 0.250000
vt 0.583304 0.250000
vt 0.583302 0.460717
vt 0.375000 0.460717
vt 0.375000 0.777745
vt 0.583310 0.777745
vt 0.375000 0.850504
vt 0.680848 0.541366
vt 0.775703 0.541366
vt 0.583306 0.539283
vt 0.375000 0.539283
vt 0.274496 0.750000
vt 0.173993 0.750000
vt 0.125000 0.701007
vt 0.125000 0.600504
vt 0.375000 0.722255
vt 0.775405 0.541273
vt 0.874057 0.500943
vt 0.875000 0.600088
vt 0.823272 0.750000
vt 0.652368 0.750000
vt 0.648483 0.740263
vt 0.874057 0.701950
vt 0.826007 0.750000
vt 0.875000 0.500000
vt 0.875000 0.700148
vt 0.625000 0.539283
vt 0.663340 0.500943
vt 0.664283 0.500000
vt 0.869110 0.500000
vt 0.695948 0.679052
vt 0.641623 0.730250
vt 0.635035 0.722746
vt 0.375000 0.048993
vt 0.583313 0.048993
vt 0.375000 0.149496
vt 0.125000 0.500000
vt 0.335717 0.500000
vt 0.355391 0.730391
vt 0.375000 0.722254
vt 0.347254 0.750000
vt 0.355391 0.730391
vt 0.580264 0.750000
vt 0.583310 0.760598
vt 0.583310 0.774111
usemtl Material.001
s 1
f 2/1/1 14/2/1 12/3/1 3/4/1
f 15/5/2 9/6/2 26/7/2 25/8/2 16/9/2
f 10/10/3 8/11/3 11/12/3 13/13/3
f 1/14/4 7/15/4 18/16/4 4/17/4
f 22/18/5 24/19/5 14/2/5 2/1/5 19/20/5
f 15/5/6 17/21/6 6/22/6 9/6/6
f 16/23/7 5/24/7 4/17/7 18/16/7
f 19/25/8 2/26/8 3/27/8 20/28/8
f 5/24/9 16/9/9 25/8/9 21/29/9
f 6/30/10 7/31/10 8/32/10
f 10/10/11 13/13/11 14/33/11 24/34/11 27/35/11
f 8/11/12 10/10/12 9/6/12 6/22/12
f 13/13/13 11/12/13 12/36/13 14/37/13
f 11/12/14 8/11/14 7/38/14 12/39/14
f 17/21/15 15/5/15 16/40/15 18/41/15
f 6/22/16 17/21/16 18/42/16 7/43/16
f 9/6/17 10/44/17 27/45/17 26/46/17
f 3/47/18 12/48/18 7/15/18 1/14/18 20/49/18
f 1/50/19 4/51/19 5/24/19 21/29/19 23/52/19
f 21/53/19 22/54/19 23/55/19
f 24/19/20 25/56/20 26/57/20 27/58/20
f 24/19/21 22/18/21 21/29/21 25/8/21
f 23/55/19 22/54/19 19/25/19 20/28/19 1/50/19
