# Blender 4.3.0
# www.blender.org
mtllib node-small.mtl
o Cube.003
v -0.421545 0.000000 0.368729
v -0.504459 0.102590 0.475262
v -0.331914 0.601731 0.272991
v -0.445403 0.499055 0.416206
v -0.421545 0.000000 -0.363840
v -0.504549 0.101986 -0.444265
v -0.331914 0.601730 -0.275034
v -0.445293 0.499795 -0.385009
v 0.309275 -0.000000 0.209984
v 0.417939 0.102194 0.268337
v 0.212826 0.601731 0.127248
v 0.358756 0.499517 0.209153
v 0.136755 0.000000 -0.378697
v 0.194603 0.101506 -0.463749
v 0.053483 0.601731 -0.288631
v 0.135190 0.500374 -0.404335
vn 0.2307 0.1434 0.9624
vn 0.9397 0.1401 -0.3121
vn -0.0000 1.0000 -0.0000
vn -0.9891 0.1473 -0.0000
vn -0.0300 0.1473 -0.9886
vn -0.7767 -0.6299 0.0003
vn -0.6697 0.7426 0.0004
vn -0.0214 -0.6324 -0.7744
vn -0.0232 0.7444 -0.6673
vn 0.7405 -0.6344 -0.2216
vn 0.6287 0.7418 -0.2333
vn 0.1674 -0.6310 0.7575
vn 0.1697 0.7409 0.6498
vn -0.0000 -1.0000 -0.0000
vt 0.417458 0.750000
vt 0.582534 0.750000
vt 0.582341 1.000000
vt 0.417623 1.000000
vt 0.417172 0.500000
vt 0.582889 0.500000
vt 0.666520 0.538332
vt 0.833931 0.533908
vt 0.841288 0.715892
vt 0.658545 0.712039
vt 0.417623 0.000000
vt 0.582341 0.000000
vt 0.582649 0.250000
vt 0.417372 0.250000
vt 0.582649 0.250000
vt 0.156686 0.527078
vt 0.151992 0.722789
vt 0.125000 0.745979
vt 0.125000 0.503998
vt 0.875000 0.500000
vt 0.875000 0.750000
vt 0.343075 0.530168
vt 0.130064 0.500000
vt 0.369684 0.500000
vt 0.625000 0.500000
vt 0.348128 0.720042
vt 0.372015 0.750000
vt 0.129660 0.750000
vt 0.625000 0.750000
usemtl Material.002
s 1
f 10/1/1 12/2/1 4/3/1 2/4/1
f 14/5/2 16/6/2 12/2/2 10/1/2
f 15/7/3 7/8/3 3/9/3 11/10/3
f 2/11/4 4/12/4 8/13/4 6/14/4
f 6/14/5 8/15/5 16/6/5 14/5/5
f 5/16/6 1/17/6 2/18/6 6/19/6
f 3/9/7 7/8/7 8/20/7 4/21/7
f 13/22/8 5/16/8 6/23/8 14/24/8
f 7/8/9 15/7/9 16/25/9 8/20/9
f 9/26/10 13/22/10 14/5/10 10/1/10
f 15/7/11 11/10/11 12/2/11 16/6/11
f 1/17/12 9/26/12 10/27/12 2/28/12
f 11/10/13 3/9/13 4/21/13 12/29/13
f 5/16/14 13/22/14 9/26/14 1/17/14
