# Blender 4.3.0
# www.blender.org
mtllib pickaxe.mtl
o Cube.002
v 0.762992 -0.107803 -0.049711
v 0.855004 -0.107803 -0.049711
v 0.762992 -0.107803 0.049711
v 0.855004 -0.107803 0.049711
v 0.823138 -0.220327 -0.041448
v 0.746420 -0.220327 -0.041448
v 0.746420 -0.220327 0.041448
v 0.823138 -0.220327 0.041448
v 0.786624 -0.316037 -0.031732
v 0.727891 -0.316037 -0.031732
v 0.727891 -0.316037 0.031732
v 0.786624 -0.316037 0.031732
v 0.730540 -0.419508 -0.019901
v 0.693705 -0.419508 -0.019901
v 0.693705 -0.419508 0.019901
v 0.730540 -0.419508 0.019901
v 0.679036 -0.491370 -0.005047
v 0.670351 -0.487330 -0.005047
v 0.670351 -0.487330 0.005046
v 0.679036 -0.491370 0.005046
v 0.762992 0.000000 -0.049711
v 0.855004 0.000000 -0.049711
v 0.762992 -0.000000 0.049711
v 0.855004 -0.000000 0.049711
v 0.762992 0.107803 -0.049711
v 0.855004 0.107803 -0.049711
v 0.762992 0.107803 0.049711
v 0.855004 0.107803 0.049711
v 0.823138 0.220327 -0.041448
v 0.746420 0.220327 -0.041448
v 0.746420 0.220327 0.041448
v 0.823138 0.220327 0.041448
v 0.786624 0.316037 -0.031732
v 0.727891 0.316037 -0.031732
v 0.727891 0.316037 0.031732
v 0.786624 0.316037 0.031732
v 0.730540 0.419508 -0.019901
v 0.693705 0.419508 -0.019901
v 0.693705 0.419508 0.019901
v 0.730540 0.419508 0.019901
v 0.679035 0.491370 -0.005046
v 0.670351 0.487330 -0.005046
v 0.670351 0.487330 0.005047
v 0.679035 0.491370 0.005047
vn -0.0000 -0.0000 -1.0000
vn 0.9622 -0.2725 -0.0000
vn 0.9343 -0.3564 -0.0000
vn -0.0000 -0.0732 -0.9973
vn -0.0000 -0.0732 0.9973
vn -0.9893 0.1457 -0.0000
vn 0.8792 -0.4765 -0.0000
vn -0.0000 -0.1010 -0.9949
vn -0.0000 -0.1121 -0.9937
vn -0.0000 -0.1019 -0.9948
vn -0.0000 -0.1010 0.9949
vn -0.0000 -0.1019 0.9948
vn -0.0000 -0.1121 0.9937
vn -0.9818 0.1901 -0.0000
vn -0.0177 -0.1989 0.9799
vn -0.0000 -0.1136 -0.9935
vn -0.0000 -0.1136 0.9935
vn -0.9495 0.3137 -0.0000
vn -0.9457 0.3250 -0.0000
vn -0.4218 -0.9067 -0.0000
vn -0.9455 0.3256 -0.0000
vn 0.8128 -0.5825 -0.0000
vn -0.0177 -0.1989 -0.9799
vn 1.0000 -0.0000 -0.0000
vn -1.0000 -0.0000 -0.0000
vn -0.0000 -0.0000 1.0000
vn 0.9622 0.2725 -0.0000
vn 0.9343 0.3564 -0.0000
vn -0.0000 0.0732 -0.9973
vn -0.0000 0.0732 0.9973
vn -0.9893 -0.1457 -0.0000
vn 0.8792 0.4765 -0.0000
vn -0.0000 0.1010 -0.9949
vn -0.0000 0.1019 -0.9948
vn -0.0000 0.1121 -0.9937
vn -0.0000 0.1010 0.9949
vn -0.0000 0.1121 0.9937
vn -0.0000 0.1019 0.9948
vn -0.9818 -0.1901 -0.0000
vn -0.0177 0.1989 0.9799
vn -0.0000 0.1136 -0.9935
vn -0.0000 0.1136 0.9935
vn -0.9495 -0.3137 -0.0000
vn -0.9457 -0.3250 -0.0000
vn -0.4218 0.9067 -0.0000
vn -0.9455 -0.3256 -0.0000
vn 0.8128 0.5825 -0.0000
vn -0.0177 0.1989 -0.9799
vt 0.375000 0.125000
vt 0.625000 0.125000
vt 0.625000 0.250000
vt 0.375000 0.250000
vt 0.875000 0.500000
vt 0.625000 0.500000
vt 0.375000 0.500000
vt 0.125000 0.500000
vt 0.875000 0.625000
vt 0.625000 0.625000
vt 0.375000 0.625000
vt 0.125000 0.625000
s 1
usemtl Material.001
f 21/1/1 22/2/1 2/3/1 1/4/1
f 2/5/2 4/6/2 8/6/2 5/5/2
f 5/5/3 8/6/3 12/6/3 9/5/3
f 1/4/4 2/3/4 5/3/4 6/4/4
f 4/6/5 3/7/5 7/7/5 8/6/5
f 3/7/6 1/8/6 6/8/6 7/7/6
f 9/5/7 12/6/7 16/6/7 13/5/7
f 6/4/8 5/3/8 9/3/9 10/4/10
f 8/6/11 7/7/11 11/7/12 12/6/13
f 7/7/14 6/8/14 10/8/14 11/7/14
f 16/6/15 15/7/15 19/7/15 20/6/15
f 10/4/10 9/3/9 13/3/16 14/4/16
f 12/6/13 11/7/12 15/7/17 16/6/17
f 11/7/18 10/8/18 14/8/19 15/7/19
f 18/4/20 17/3/20 20/6/20 19/7/20
f 15/7/19 14/8/19 18/8/21 19/7/21
f 13/5/22 16/6/22 20/6/22 17/5/22
f 14/4/23 13/3/23 17/3/23 18/4/23
f 4/6/24 2/5/24 22/9/24 24/10/24
f 1/8/25 3/7/25 23/11/25 21/12/25
f 3/7/26 4/6/26 24/10/26 23/11/26
f 21/1/1 25/4/1 26/3/1 22/2/1
f 26/5/27 29/5/27 32/6/27 28/6/27
f 29/5/28 33/5/28 36/6/28 32/6/28
f 25/4/29 30/4/29 29/3/29 26/3/29
f 28/6/30 32/6/30 31/7/30 27/7/30
f 27/7/31 31/7/31 30/8/31 25/8/31
f 33/5/32 37/5/32 40/6/32 36/6/32
f 30/4/33 34/4/34 33/3/35 29/3/33
f 32/6/36 36/6/37 35/7/38 31/7/36
f 31/7/39 35/7/39 34/8/39 30/8/39
f 40/6/40 44/6/40 43/7/40 39/7/40
f 34/4/34 38/4/41 37/3/41 33/3/35
f 36/6/37 40/6/42 39/7/42 35/7/38
f 35/7/43 39/7/44 38/8/44 34/8/43
f 42/4/45 43/7/45 44/6/45 41/3/45
f 39/7/44 43/7/46 42/8/46 38/8/44
f 37/5/47 41/5/47 44/6/47 40/6/47
f 38/4/48 42/4/48 41/3/48 37/3/48
f 28/6/24 24/10/24 22/9/24 26/5/24
f 25/8/25 21/12/25 23/11/25 27/7/25
f 27/7/26 23/11/26 24/10/26 28/6/26
o Cube.001
v -0.117860 -0.043063 0.018205
v -0.117860 -0.023545 0.030948
v 0.882140 -0.037381 0.037303
v 0.882140 -0.056900 0.024561
v -0.117860 0.023545 0.030948
v -0.117860 0.043063 0.018205
v 0.882140 0.056900 0.024561
v 0.882140 0.037381 0.037303
v -0.117860 -0.023545 -0.030948
v -0.117860 -0.043063 -0.018205
v 0.882140 -0.056900 -0.024560
v 0.882140 -0.037381 -0.037303
v -0.117860 0.043063 -0.018205
v -0.117860 0.023545 -0.030948
v 0.882140 0.037381 -0.037303
v 0.882140 0.056900 -0.024560
v 0.215474 -0.043063 0.018201
v 0.215474 -0.023531 0.030948
v 0.548807 -0.037367 0.037303
v 0.548807 -0.056900 0.024556
v 0.548807 0.056900 0.024556
v 0.548807 0.037367 0.037303
v 0.215474 0.023531 0.030948
v 0.215474 0.043063 0.018201
v 0.548807 0.037367 -0.037303
v 0.548807 0.056900 -0.024556
v 0.215474 0.043063 -0.018201
v 0.215474 0.023531 -0.030948
v 0.548807 -0.056900 -0.024556
v 0.548807 -0.037367 -0.037303
v 0.215474 -0.023531 -0.030948
v 0.215474 -0.043063 -0.018201
vn 1.0000 -0.0000 -0.0000
vn -0.0000 -0.0000 -1.0000
vn -0.0191 -0.0000 0.9998
vn -0.0000 -0.0000 1.0000
vn -0.0000 -1.0000 -0.0000
vn -0.0000 1.0000 -0.0000
vn -0.0415 0.9991 -0.0000
vn -0.0191 -0.0000 -0.9998
vn -1.0000 -0.0000 -0.0000
vn -0.0415 -0.9991 -0.0000
vn -0.0000 -0.5466 0.8374
vn -0.0000 0.5466 0.8374
vn -0.0000 0.5466 -0.8374
vn -0.0000 -0.5466 -0.8374
vn -0.0386 -0.5461 0.8368
vn -0.0386 0.5461 0.8368
vn -0.0386 0.5461 -0.8368
vn -0.0386 -0.5461 -0.8368
vt 0.625000 0.542879
vt 0.667700 0.500000
vt 0.832300 0.500000
vt 0.875000 0.542879
vt 0.875000 0.707121
vt 0.832300 0.750000
vt 0.667700 0.750000
vt 0.625000 0.707121
vt 0.375000 0.556656
vt 0.458333 0.556697
vt 0.458333 0.693303
vt 0.375000 0.693344
vt 0.458333 0.056697
vt 0.541667 0.042910
vt 0.541667 0.207090
vt 0.458333 0.193303
vt 0.625000 0.042879
vt 0.625000 0.207121
vt 0.375000 0.801468
vt 0.458333 0.801486
vt 0.458333 0.948514
vt 0.375000 0.948532
vt 0.375000 0.301468
vt 0.458333 0.301486
vt 0.458333 0.448514
vt 0.375000 0.448532
vt 0.541667 0.792715
vt 0.625000 0.792700
vt 0.625000 0.957300
vt 0.541667 0.957285
vt 0.541667 0.292715
vt 0.541667 0.457285
vt 0.541667 0.542910
vt 0.541667 0.707090
vt 0.625000 0.292700
vt 0.625000 0.457300
vt 0.541667 0.457285
vt 0.458333 0.693303
vt 0.125000 0.556656
vt 0.176468 0.500000
vt 0.323532 0.500000
vt 0.323532 0.750000
vt 0.176468 0.750000
vt 0.125000 0.693344
vt 0.541667 0.957285
vt 0.541667 0.000000
vt 0.625000 0.000000
vt 0.375000 0.193344
vt 0.458333 0.193303
vt 0.375000 0.000000
vt 0.458333 0.000000
vt 0.458333 0.056697
vt 0.375000 0.056656
vt 0.532644 0.000000
s 1
usemtl Material.002
f 59/13/49 60/14/49 51/15/49 52/16/49 47/17/49 48/18/49 55/19/49 56/20/49
f 58/21/50 72/22/50 75/23/50 53/24/50
f 62/25/51 63/26/51 66/27/51 67/28/51
f 63/26/52 47/29/52 52/30/52 66/27/52
f 54/31/53 76/32/53 61/33/53 45/34/53
f 50/35/54 68/36/54 71/37/54 57/38/54
f 73/39/53 55/40/53 48/41/53 64/42/53
f 68/36/55 65/43/55 70/44/55 71/37/55
f 69/45/50 59/13/50 56/20/50 74/46/50
f 65/43/54 51/47/54 60/48/54 70/49/54
f 72/22/56 69/45/56 74/46/56 75/50/56
f 49/51/57 50/52/57 57/53/57 58/21/57 53/24/57 54/54/57 45/55/57 46/56/57
f 76/32/58 73/39/58 64/57/58 61/33/58
f 64/58/59 48/59/59 47/29/59 63/26/59
f 68/36/60 50/35/60 49/60/60 67/61/60
f 72/22/61 58/21/61 57/38/61 71/37/61
f 76/32/62 54/31/62 53/24/62 75/23/62
f 45/62/59 61/63/59 62/64/59 46/65/59
f 61/63/63 64/66/63 63/26/63 62/25/63
f 51/47/60 65/43/60 66/27/60 52/30/60
f 65/43/64 68/36/64 67/28/64 66/27/64
f 59/13/61 69/45/61 70/49/61 60/48/61
f 69/45/65 72/22/65 71/37/65 70/44/65
f 55/40/62 73/39/62 74/46/62 56/20/62
f 73/39/66 76/32/66 75/50/66 74/46/66
f 46/65/52 62/64/52 67/61/52 49/60/52
