# Blender 4.3.0
# www.blender.org
mtllib tree.mtl
o Cube.001
v -0.433600 0.337014 0.433600
v -0.433600 0.337014 -0.433600
v 0.433600 0.337014 -0.433600
v 0.433600 0.337014 0.433600
v -0.313184 0.932736 0.313184
v -0.313184 0.932736 -0.313184
v 0.313184 0.932736 -0.313184
v 0.313184 0.932736 0.313184
v -0.414878 0.932736 0.414878
v -0.414878 0.932736 -0.414878
v 0.414878 0.932736 -0.414878
v 0.414878 0.932736 0.414878
v -0.222510 1.459515 0.222510
v -0.222510 1.459515 -0.222510
v 0.222510 1.459515 -0.222510
v 0.222510 1.459515 0.222510
v -0.310431 1.459515 0.310431
v -0.310431 1.459515 -0.310431
v 0.310431 1.459515 -0.310431
v 0.310431 1.459515 0.310431
v -0.028687 2.020157 0.028687
v -0.028687 2.020157 -0.028687
v 0.028687 2.020157 -0.028687
v 0.028687 2.020157 0.028687
v -0.067243 -0.000000 0.128403
v -0.128403 -0.000000 0.067243
v -0.128403 0.000000 -0.067243
v -0.067243 0.000000 -0.128403
v 0.128403 -0.000000 0.067243
v 0.067243 -0.000000 0.128403
v 0.067243 0.000000 -0.128403
v 0.128403 0.000000 -0.067243
v -0.128403 0.337014 0.067243
v -0.067243 0.337014 0.128403
v -0.067243 0.337014 -0.128403
v -0.128403 0.337014 -0.067243
v 0.128403 0.337014 -0.067243
v 0.067243 0.337014 -0.128403
v 0.067243 0.337014 0.128403
v 0.128403 0.337014 0.067243
vn -0.0000 -0.0000 1.0000
vn -0.0000 -0.0000 -1.0000
vn -0.0000 -1.0000 -0.0000
vn 1.0000 -0.0000 -0.0000
vn -0.9802 0.1981 -0.0000
vn -0.0000 0.1981 -0.9802
vn 0.9802 0.1981 -0.0000
vn -0.0000 0.1981 0.9802
vn -0.0000 0.3430 0.9393
vn -0.0000 0.3430 -0.9393
vn 0.9393 0.3430 -0.0000
vn -0.9393 0.3430 -0.0000
vn 0.8935 0.4490 -0.0000
vn -0.0000 1.0000 -0.0000
vn -0.8935 0.4490 -0.0000
vn -0.0000 0.4490 0.8935
vn -0.0000 0.4490 -0.8935
vn -0.7071 -0.0000 -0.7071
vn 0.7071 -0.0000 -0.7071
vn 0.7071 -0.0000 0.7071
vn -0.7071 -0.0000 0.7071
vn -1.0000 -0.0000 -0.0000
vt 0.375000 0.809539
vt 0.440241 0.809539
vt 0.440241 0.940461
vt 0.375000 0.940461
vt 0.375000 0.309539
vt 0.440241 0.309539
vt 0.440241 0.440461
vt 0.375000 0.440461
vt 0.440241 0.750000
vt 0.440247 1.000000
vt 0.440241 0.940461
vt 0.375000 0.559539
vt 0.440241 0.559539
vt 0.440241 0.690461
vt 0.375000 0.690461
vt 0.125000 0.559539
vt 0.184539 0.500000
vt 0.315461 0.500000
vt 0.375000 0.559539
vt 0.315461 0.750000
vt 0.184539 0.750000
vt 0.125000 0.690461
vt 0.440241 0.059539
vt 0.440241 0.000000
vt 0.440247 0.250000
vt 0.440241 0.190461
vt 0.440241 0.500000
vt 0.440247 0.750000
vt 0.440241 0.250000
vt 0.440247 0.500000
vt 0.625000 0.000000
vt 0.625000 0.250000
vt 0.625000 0.500000
vt 0.625000 0.750000
vt 0.625000 1.000000
vt 0.440241 1.000000
vt 0.875000 0.500000
vt 0.875000 0.750000
vt 0.375000 0.190461
vt 0.375000 0.000000
vt 0.375000 0.059539
s 1
usemtl wood.001
f 30/1/1 39/2/1 34/3/1 25/4/1
f 28/5/2 35/6/2 38/7/2 31/8/2
f 32/12/4 37/13/4 40/14/4 29/15/4
f 27/16/3 28/17/3 31/18/3 32/19/3 29/15/3 30/20/3 25/21/3 26/22/3
f 35/6/18 28/5/18 27/39/18 36/26/18
f 37/13/19 32/12/19 31/8/19 38/7/19
f 39/2/20 30/1/20 29/15/20 40/14/20
f 25/40/21 34/24/21 33/23/21 26/41/21
f 26/41/22 33/23/22 36/26/22 27/39/22
usemtl leafs.001
f 39/2/3 4/9/3 1/10/3 34/11/3
f 33/23/3 1/24/3 2/25/3 36/26/3
f 37/13/3 3/27/3 4/28/3 40/14/3
f 35/6/3 2/29/3 3/30/3 38/7/3
f 1/24/5 5/31/5 6/32/5 2/29/5
f 2/29/6 6/32/6 7/33/6 3/27/6
f 3/27/7 7/33/7 8/34/7 4/9/7
f 4/9/8 8/34/8 5/35/8 1/36/8
f 5/35/3 8/34/3 12/34/3 9/35/3
f 9/35/9 12/34/9 16/34/9 13/35/9
f 7/33/3 6/32/3 10/32/3 11/33/3
f 8/34/3 7/33/3 11/33/3 12/34/3
f 6/32/3 5/31/3 9/31/3 10/32/3
f 16/34/3 15/33/3 19/33/3 20/34/3
f 11/33/10 10/32/10 14/32/10 15/33/10
f 12/34/11 11/33/11 15/33/11 16/34/11
f 10/32/12 9/31/12 13/31/12 14/32/12
f 20/34/13 19/33/13 23/33/13 24/34/13
f 14/32/3 13/31/3 17/31/3 18/32/3
f 13/35/3 16/34/3 20/34/3 17/35/3
f 15/33/3 14/32/3 18/32/3 19/33/3
f 23/33/14 22/37/14 21/38/14 24/34/14
f 18/32/15 17/31/15 21/31/15 22/32/15
f 17/35/16 20/34/16 24/34/16 21/35/16
f 19/33/17 18/32/17 22/32/17 23/33/17
f 33/23/3 34/24/3 1/24/3
f 35/6/3 36/29/3 2/25/3
f 37/13/3 38/27/3 3/30/3
f 39/2/3 40/9/3 4/28/3
